{
	"asset":{
		"generator":"Khronos glTF Blender I/O v5.1.19",
		"version":"2.0"
	},
	"scene":0,
	"scenes":[
		{
			"name":"Scene",
			"nodes":[
				5
			]
		}
	],
	"nodes":[
		{
			"mesh":0,
			"name":"Object_2",
			"translation":[
				0,
				1.2831326785089914e-05,
				-95.50041961669922
			]
		},
		{
			"mesh":1,
			"name":"Object_3",
			"translation":[
				0,
				2.6518075173953548e-05,
				-197.36752319335938
			]
		},
		{
			"mesh":2,
			"name":"Object_4",
			"translation":[
				0,
				1.2831326785089914e-05,
				-95.50041961669922
			]
		},
		{
			"mesh":3,
			"name":"Object_5",
			"translation":[
				0,
				3.543463390087709e-05,
				-263.7313232421875
			]
		},
		{
			"children":[
				0,
				1,
				2,
				3
			],
			"name":"Untitled_7.obj.cleaner.materialmerger.gles"
		},
		{
			"children":[
				4
			],
			"name":"Sketchfab_model",
			"rotation":[
				-0.70710688829422,
				0,
				0,
				0.7071066498756409
			]
		}
	],
	"materials":[
		{
			"doubleSided":true,
			"name":"Mat.1_1",
			"normalTexture":{
				"index":0
			},
			"pbrMetallicRoughness":{
				"baseColorTexture":{
					"index":1
				},
				"metallicRoughnessTexture":{
					"index":2
				}
			}
		},
		{
			"doubleSided":true,
			"emissiveFactor":[
				1,
				1,
				1
			],
			"emissiveTexture":{
				"index":3
			},
			"name":"Mat_1",
			"pbrMetallicRoughness":{
				"baseColorTexture":{
					"index":4
				},
				"metallicFactor":0,
				"roughnessFactor":0.6000000238418579
			}
		},
		{
			"doubleSided":true,
			"name":"default",
			"normalTexture":{
				"index":5
			},
			"pbrMetallicRoughness":{
				"baseColorTexture":{
					"index":6
				},
				"metallicRoughnessTexture":{
					"index":7
				}
			}
		}
	],
	"meshes":[
		{
			"name":"Object_0",
			"primitives":[
				{
					"attributes":{
						"POSITION":0,
						"NORMAL":1,
						"TEXCOORD_0":2
					},
					"indices":3,
					"material":0
				}
			]
		},
		{
			"name":"Object_1",
			"primitives":[
				{
					"attributes":{
						"POSITION":4,
						"NORMAL":5,
						"TEXCOORD_0":6
					},
					"indices":7,
					"material":1
				}
			]
		},
		{
			"name":"Object_2",
			"primitives":[
				{
					"attributes":{
						"POSITION":8,
						"NORMAL":9,
						"TEXCOORD_0":10
					},
					"indices":11,
					"material":1
				}
			]
		},
		{
			"name":"Object_3",
			"primitives":[
				{
					"attributes":{
						"POSITION":12,
						"NORMAL":13,
						"TEXCOORD_0":14
					},
					"indices":15,
					"material":2
				}
			]
		}
	],
	"textures":[
		{
			"sampler":0,
			"source":0
		},
		{
			"sampler":0,
			"source":1
		},
		{
			"sampler":0,
			"source":2
		},
		{
			"sampler":0,
			"source":3
		},
		{
			"sampler":0,
			"source":3
		},
		{
			"sampler":0,
			"source":4
		},
		{
			"sampler":0,
			"source":5
		},
		{
			"sampler":0,
			"source":6
		}
	],
	"images":[
		{
			"mimeType":"image/png",
			"name":"Image_2",
			"uri":"Image_2.png"
		},
		{
			"mimeType":"image/png",
			"name":"Image_0",
			"uri":"Image_0.png"
		},
		{
			"mimeType":"image/png",
			"name":"Image_1",
			"uri":"Image_1.png"
		},
		{
			"mimeType":"image/png",
			"name":"Image_3",
			"uri":"Image_3.png"
		},
		{
			"mimeType":"image/png",
			"name":"Image_6",
			"uri":"Image_6.png"
		},
		{
			"mimeType":"image/png",
			"name":"Image_4",
			"uri":"Image_4.png"
		},
		{
			"mimeType":"image/png",
			"name":"Image_5",
			"uri":"Image_5.png"
		}
	],
	"accessors":[
		{
			"bufferView":0,
			"componentType":5126,
			"count":11040,
			"max":[
				1491.0489501953125,
				1491.0489501953125,
				103.527099609375
			],
			"min":[
				-1491.0489501953125,
				-1491.0489501953125,
				93.1270980834961
			],
			"type":"VEC3"
		},
		{
			"bufferView":1,
			"componentType":5126,
			"count":11040,
			"type":"VEC3"
		},
		{
			"bufferView":2,
			"componentType":5126,
			"count":11040,
			"type":"VEC2"
		},
		{
			"bufferView":3,
			"componentType":5123,
			"count":50112,
			"type":"SCALAR"
		},
		{
			"bufferView":4,
			"componentType":5126,
			"count":480,
			"max":[
				1081.5,
				1081.5,
				243.1643524169922
			],
			"min":[
				-1081.5,
				-1081.5,
				233.1643524169922
			],
			"type":"VEC3"
		},
		{
			"bufferView":5,
			"componentType":5126,
			"count":480,
			"type":"VEC3"
		},
		{
			"bufferView":6,
			"componentType":5126,
			"count":480,
			"type":"VEC2"
		},
		{
			"bufferView":7,
			"componentType":5123,
			"count":720,
			"type":"SCALAR"
		},
		{
			"bufferView":8,
			"componentType":5126,
			"count":317,
			"max":[
				1463.3489990234375,
				1463.3489990234375,
				93.1270980834961
			],
			"min":[
				-1463.3489990234375,
				-1463.3489990234375,
				93.1270980834961
			],
			"type":"VEC3"
		},
		{
			"bufferView":9,
			"componentType":5126,
			"count":317,
			"type":"VEC3"
		},
		{
			"bufferView":10,
			"componentType":5126,
			"count":317,
			"type":"VEC2"
		},
		{
			"bufferView":11,
			"componentType":5123,
			"count":852,
			"type":"SCALAR"
		},
		{
			"bufferView":12,
			"componentType":5126,
			"count":785,
			"max":[
				1509.807861328125,
				1510.1959228515625,
				259.23248291015625
			],
			"min":[
				-1510.1959228515625,
				-2133.634521484375,
				0
			],
			"type":"VEC3"
		},
		{
			"bufferView":13,
			"componentType":5126,
			"count":785,
			"type":"VEC3"
		},
		{
			"bufferView":14,
			"componentType":5126,
			"count":785,
			"type":"VEC2"
		},
		{
			"bufferView":15,
			"componentType":5123,
			"count":3240,
			"type":"SCALAR"
		}
	],
	"bufferViews":[
		{
			"buffer":0,
			"byteLength":132480,
			"byteOffset":0,
			"target":34962
		},
		{
			"buffer":0,
			"byteLength":132480,
			"byteOffset":132480,
			"target":34962
		},
		{
			"buffer":0,
			"byteLength":88320,
			"byteOffset":264960,
			"target":34962
		},
		{
			"buffer":0,
			"byteLength":100224,
			"byteOffset":353280,
			"target":34963
		},
		{
			"buffer":0,
			"byteLength":5760,
			"byteOffset":453504,
			"target":34962
		},
		{
			"buffer":0,
			"byteLength":5760,
			"byteOffset":459264,
			"target":34962
		},
		{
			"buffer":0,
			"byteLength":3840,
			"byteOffset":465024,
			"target":34962
		},
		{
			"buffer":0,
			"byteLength":1440,
			"byteOffset":468864,
			"target":34963
		},
		{
			"buffer":0,
			"byteLength":3804,
			"byteOffset":470304,
			"target":34962
		},
		{
			"buffer":0,
			"byteLength":3804,
			"byteOffset":474108,
			"target":34962
		},
		{
			"buffer":0,
			"byteLength":2536,
			"byteOffset":477912,
			"target":34962
		},
		{
			"buffer":0,
			"byteLength":1704,
			"byteOffset":480448,
			"target":34963
		},
		{
			"buffer":0,
			"byteLength":9420,
			"byteOffset":482152,
			"target":34962
		},
		{
			"buffer":0,
			"byteLength":9420,
			"byteOffset":491572,
			"target":34962
		},
		{
			"buffer":0,
			"byteLength":6280,
			"byteOffset":500992,
			"target":34962
		},
		{
			"buffer":0,
			"byteLength":6480,
			"byteOffset":507272,
			"target":34963
		}
	],
	"samplers":[
		{
			"magFilter":9729,
			"minFilter":9987
		}
	],
	"buffers":[
		{
			"byteLength":513752,
			"uri":"heliport2.bin"
		}
	]
}
