<?xml version="1.0" standalone="no"?>
<!DOCTYPE svg PUBLIC "-//W3C//DTD SVG 20010904//EN"
 "http://www.w3.org/TR/2001/REC-SVG-20010904/DTD/svg10.dtd">
<svg version="1.0" xmlns="http://www.w3.org/2000/svg"
 width="640.000000pt" height="360.000000pt" viewBox="0 0 640.000000 360.000000"
 preserveAspectRatio="xMidYMid meet">

<g transform="translate(0.000000,360.000000) scale(0.100000,-0.100000)"
fill="#000000" stroke="none">
<path d="M0 3031 l0 -569 89 -4 c67 -2 94 -7 108 -20 17 -16 54 -18 406 -18
213 -1 393 2 399 6 7 4 29 7 50 5 28 -1 40 3 50 19 7 11 20 20 28 19 10 0 11
-2 2 -6 -6 -2 -12 -8 -12 -13 0 -12 64 7 68 20 2 6 8 7 14 4 16 -10 78 29 78
48 0 14 7 18 33 17 29 -2 29 -2 5 -6 -34 -5 -36 -43 -1 -43 12 0 24 4 27 8 14
23 143 8 183 -21 6 -4 23 -5 37 -1 16 4 26 2 26 -5 0 -6 -5 -11 -11 -11 -6 0
-8 -9 -3 -22 7 -24 22 -38 39 -37 6 0 4 3 -2 6 -21 8 -15 33 7 33 11 0 20 5
20 10 0 10 664 9 839 -2 54 -3 74 -1 78 9 8 22 154 18 184 -5 39 -30 55 -32
95 -11 32 16 59 19 176 19 80 0 139 4 143 10 3 6 51 10 109 10 82 0 106 3 117
16 7 9 22 14 36 11 15 -3 23 1 23 10 0 8 5 11 10 8 6 -3 10 -15 10 -26 0 -16
7 -19 43 -19 23 0 51 7 61 15 15 12 53 15 166 15 80 0 150 4 155 9 16 14 139
19 170 7 l28 -12 -29 -14 -29 -14 28 -4 c17 -2 27 -9 27 -20 1 -16 2 -16 14 1
7 9 19 17 26 17 7 0 19 -8 26 -17 12 -17 13 -17 14 -1 0 11 10 18 28 20 l27 3
-29 16 -29 16 29 10 c42 14 174 4 174 -13 0 -15 -22 -22 -85 -27 -22 -2 5 -4
59 -5 89 -2 98 -4 80 -16 -23 -18 -19 -22 29 -29 29 -4 37 -2 37 9 0 14 37 15
298 13 239 -2 302 -5 321 -17 13 -8 21 -10 17 -4 -12 19 28 22 295 22 237 -1
269 -3 269 -16 0 -13 10 -15 48 -13 26 1 67 -3 91 -10 25 -7 57 -10 73 -7 15
3 28 1 28 -4 0 -6 -5 -10 -12 -10 -6 0 -8 -3 -4 -7 4 -4 27 -6 51 -4 26 1 45
-2 45 -8 0 -5 19 -11 43 -13 l42 -3 -45 -11 -45 -11 49 -8 c28 -4 101 -5 163
-1 97 5 113 4 113 -9 0 -16 20 -19 58 -9 18 5 22 13 22 44 0 28 -5 40 -17 43
-17 4 -17 5 0 6 20 1 24 37 5 44 -10 4 -10 6 0 6 9 1 12 122 12 571 l0 570
-3200 0 -3200 0 0 -569z m6115 -90 c-3 -6 3 -14 13 -20 9 -5 24 -26 32 -46 12
-30 18 -36 37 -32 17 3 23 0 23 -14 0 -10 -5 -21 -11 -25 -12 -7 -105 10 -148
27 -12 5 -50 12 -82 16 -50 5 -59 3 -59 -10 0 -9 -12 -28 -27 -42 -15 -14 -24
-25 -19 -25 5 0 -5 -13 -22 -30 -18 -16 -38 -30 -45 -30 -8 0 -28 -7 -44 -15
-24 -12 -56 -14 -149 -10 -135 6 -162 17 -125 54 12 12 19 26 16 32 -11 16 37
48 57 38 20 -11 50 -1 45 15 -23 62 198 121 256 69 29 -27 86 -28 113 -2 34
32 86 58 117 58 16 1 26 -3 22 -8z m-2408 -217 c-3 -3 -12 -4 -19 -1 -8 3 -5
6 6 6 11 1 17 -2 13 -5z m-1394 -31 c-13 -2 -35 -2 -50 0 -16 2 -5 4 22 4 28
0 40 -2 28 -4z m3504 -9 c-3 -3 -12 -4 -19 -1 -8 3 -5 6 6 6 11 1 17 -2 13 -5z
m-2399 -114 c10 -17 10 -21 -4 -27 -18 -7 -35 13 -27 34 7 18 16 16 31 -7z
m-2608 -52 c0 -25 -4 -38 -8 -30 -5 7 -40 14 -90 17 -45 2 -82 8 -82 12 0 4
38 12 85 17 47 4 85 12 85 17 0 5 2 9 5 9 3 0 5 -19 5 -42z m533 35 c-7 -2
-21 -2 -30 0 -10 3 -4 5 12 5 17 0 24 -2 18 -5z m122 -3 c3 -5 -1 -10 -9 -10
-9 0 -16 5 -16 10 0 6 4 10 9 10 6 0 13 -4 16 -10z m1202 -52 c-2 -13 -4 -3
-4 22 0 25 2 35 4 23 2 -13 2 -33 0 -45z m60 0 c-2 -13 -4 -3 -4 22 0 25 2 35
4 23 2 -13 2 -33 0 -45z m-1717 36 c11 -12 11 -18 -1 -30 -12 -11 -21 -12 -47
-3 -39 13 -41 24 -4 37 37 14 38 14 52 -4z m247 -10 c-3 -3 -12 -4 -19 -1 -8
3 -5 6 6 6 11 1 17 -2 13 -5z m5028 -114 c3 -5 -1 -10 -9 -10 -9 0 -16 5 -16
10 0 6 4 10 9 10 6 0 13 -4 16 -10z m-87 -47 c-21 -2 -55 -2 -75 0 -21 2 -4 4
37 4 41 0 58 -2 38 -4z"/>
<path d="M3894 2489 c-3 -5 21 -9 52 -9 32 0 55 2 53 4 -10 8 -100 13 -105 5z"/>
<path d="M5495 2430 c3 -5 10 -10 16 -10 5 0 9 5 9 10 0 6 -7 10 -16 10 -8 0
-12 -4 -9 -10z"/>
<path d="M963 2393 c9 -2 23 -2 30 0 6 3 -1 5 -18 5 -16 0 -22 -2 -12 -5z"/>
<path d="M1110 2355 c0 -8 9 -10 25 -7 14 2 25 6 25 7 0 1 -11 5 -25 7 -16 3
-25 1 -25 -7z"/>
<path d="M1475 2360 c4 -6 11 -8 16 -5 14 9 11 15 -7 15 -8 0 -12 -5 -9 -10z"/>
<path d="M1288 2333 c6 -2 18 -2 25 0 6 3 1 5 -13 5 -14 0 -19 -2 -12 -5z"/>
<path d="M6320 2296 c0 -8 71 -12 76 -4 3 4 -13 8 -35 8 -23 0 -41 -2 -41 -4z"/>
<path d="M6258 2263 c12 -2 32 -2 45 0 12 2 2 4 -23 4 -25 0 -35 -2 -22 -4z"/>
<path d="M6355 2260 c-4 -6 5 -10 19 -10 14 0 26 5 26 10 0 6 -9 10 -19 10
-11 0 -23 -4 -26 -10z"/>
<path d="M5679 1491 c-75 -6 -117 -23 -149 -62 -16 -19 -271 -169 -289 -169
-25 0 -17 18 17 36 20 10 79 42 130 70 l94 52 -37 4 c-20 2 -38 0 -41 -4 -3
-4 -32 -8 -65 -8 -59 0 -62 -2 -312 -150 -139 -82 -264 -150 -278 -151 l-24
-1 25 -9 c21 -7 20 -8 -10 -4 -19 2 -69 7 -110 10 -133 10 -174 16 -182 28 -5
8 -11 7 -22 -2 -10 -9 -31 -11 -63 -7 -27 3 -58 6 -70 6 -12 0 -25 5 -28 10
-4 6 1 7 11 3 13 -5 15 -2 9 16 -7 22 -5 22 42 17 92 -12 12 12 -137 39 -171
32 -415 80 -483 94 -27 6 -85 13 -130 16 -78 5 -125 11 -262 34 -41 7 -62 7
-66 -1 -4 -7 -8 -6 -11 2 -2 7 -28 16 -58 21 -106 16 -175 27 -213 34 -29 6
-37 4 -37 -8 0 -22 -54 -29 -87 -12 -15 8 -46 15 -68 15 -22 0 -47 5 -55 11
-11 8 -3 9 30 5 100 -13 175 -18 169 -12 -11 12 -251 39 -258 29 -3 -6 -30 -7
-66 -2 -79 10 -183 11 -170 1 14 -10 19 -72 5 -72 -6 0 -8 -6 -4 -12 6 -10 4
-10 -7 0 -10 9 -10 15 -1 24 19 19 14 26 -13 21 -31 -6 -66 22 -37 30 9 3 -2
4 -26 3 -40 -3 -73 -16 -39 -16 9 0 18 -4 21 -9 3 -4 -10 -7 -28 -6 -27 1 -35
-4 -45 -26 -13 -29 -47 -30 -37 -2 11 27 51 71 70 76 30 9 8 27 -27 21 -45 -8
-77 -25 -77 -41 0 -8 -4 -11 -10 -8 -5 3 -7 0 -5 -7 11 -28 -37 -55 -105 -61
-35 -3 -66 -10 -68 -16 -2 -6 -8 -11 -13 -11 -6 0 -7 5 -3 12 4 7 3 8 -4 4 -6
-4 -9 -13 -6 -20 3 -8 1 -17 -5 -21 -7 -4 -11 5 -11 24 0 36 -18 50 -35 28
-15 -21 -35 -22 -35 -2 0 14 -3 13 -24 -2 -19 -15 -23 -24 -19 -54 l5 -36 -53
-7 c-30 -4 -64 -10 -77 -13 -17 -4 -22 -1 -23 13 0 18 -1 17 -9 -1 -5 -11 -9
-14 -9 -7 -1 18 27 73 52 100 35 37 9 24 -33 -17 -28 -28 -52 -41 -82 -46 -23
-4 -48 -14 -56 -21 -16 -17 -28 -18 -37 -4 -11 17 -45 11 -138 -26 -50 -20
-107 -37 -128 -37 -21 0 -36 -4 -33 -8 2 -5 -12 -13 -33 -18 -107 -28 -175
-43 -358 -81 -109 -22 -201 -42 -203 -44 -1 -2 11 -9 29 -15 41 -14 34 -20
-27 -26 -27 -3 -96 -9 -153 -15 -57 -5 -109 -10 -117 -10 -30 0 -11 -18 44
-43 86 -39 235 -86 342 -108 52 -11 97 -25 98 -30 6 -16 32 -38 91 -78 52 -36
62 -41 76 -41 3 0 0 -6 -7 -14 -7 -8 -16 -12 -20 -10 -4 2 -9 0 -13 -6 -3 -6
-18 -10 -33 -9 -15 1 -31 1 -37 -1 -20 -5 -36 0 -30 10 3 5 1 10 -4 10 -6 0
-11 -5 -11 -10 0 -6 -11 -3 -25 6 -13 8 -29 13 -36 9 -6 -4 -15 -1 -20 6 -7
12 -9 11 -9 -1 0 -13 -1 -13 -10 0 -7 10 -12 11 -17 4 -8 -10 -124 -14 -118
-4 6 10 -24 30 -30 20 -4 -6 -11 -8 -16 -5 -5 4 -9 -1 -9 -9 0 -23 -14 -26
-44 -11 -14 8 -33 12 -41 8 -8 -3 -15 0 -15 6 0 6 -9 3 -20 -6 -23 -20 -93
-21 -115 -3 -13 11 -14 10 -10 -1 4 -10 -3 -14 -20 -14 -14 0 -27 7 -30 16 -8
24 -50 42 -79 35 -17 -4 -23 -11 -20 -21 5 -11 2 -13 -12 -8 -12 4 -15 3 -10
-5 4 -7 14 -12 23 -12 9 0 14 -3 10 -6 -3 -3 -15 -3 -27 1 -16 5 -20 12 -16
28 4 19 1 22 -32 24 -25 2 -33 0 -23 -6 8 -5 16 -18 17 -28 3 -17 2 -17 -10
-1 -8 11 -17 14 -26 8 -8 -5 -21 -5 -31 1 -10 5 -20 9 -23 9 -3 0 -6 -38 -6
-85 l0 -85 798 0 c438 -1 871 0 962 0 133 1 169 -2 185 -14 18 -14 -8 -16
-255 -17 -151 0 -502 -3 -780 -4 -278 -2 -596 -4 -707 -4 l-203 -1 0 -29 0
-28 315 -2 c311 -2 315 -2 315 19 0 11 5 20 11 20 6 0 9 -9 6 -20 -5 -20 -2
-21 194 -18 109 2 199 0 199 -4 0 -5 19 -6 42 -4 24 3 69 5 101 5 54 1 58 3
52 21 -3 11 -2 20 4 20 5 0 11 -10 13 -22 l3 -21 350 2 351 2 1 -40 c1 -23 9
-51 17 -63 9 -12 16 -26 16 -30 0 -4 -37 -9 -82 -11 -46 -1 351 -4 882 -5
1112 -3 1918 -11 1940 -21 8 -4 61 -6 118 -5 58 2 102 -1 102 -6 0 -6 10 -6
23 -1 23 8 71 8 342 -4 249 -10 773 -14 803 -6 22 6 17 9 -32 14 -33 3 -65 12
-73 20 -12 11 17 13 187 11 l200 -3 0 45 c0 24 -4 44 -9 44 -18 0 -41 -12 -36
-20 2 -4 -9 -7 -25 -6 -36 1 -37 4 -7 15 17 7 13 9 -22 8 -23 -1 -38 -3 -32
-5 23 -8 9 -18 -25 -18 -32 0 -34 1 -18 13 22 16 16 16 -26 2 -26 -9 -34 -9
-41 2 -7 11 -9 9 -9 -7 0 -29 -17 -34 -110 -34 -43 0 -90 -4 -104 -10 -14 -5
-26 -6 -26 -2 0 4 -82 8 -183 8 -234 2 -555 13 -668 23 -99 9 -414 6 -649 -6
-85 -4 -166 -7 -180 -5 -25 4 -26 5 -16 48 l11 44 40 -5 c22 -4 45 -6 50 -6
16 0 198 1 220 0 11 0 76 0 144 0 69 1 127 -1 129 -4 3 -3 11 0 18 6 7 6 18 8
24 4 15 -9 391 -12 417 -3 12 4 24 4 27 0 2 -4 103 -7 224 -7 129 0 218 -4
214 -9 -3 -5 1 -6 8 -1 20 12 424 8 428 -4 2 -7 11 -6 24 2 16 10 22 9 25 -1
4 -9 8 -10 18 -2 8 7 43 10 89 8 l76 -4 0 32 c0 18 -6 35 -12 37 -10 4 -10 6
0 6 8 1 12 20 12 61 l0 60 -85 0 c-56 0 -85 4 -85 11 0 8 -12 9 -37 4 -21 -4
-85 -9 -142 -11 -89 -3 -107 -1 -118 14 -8 9 -12 12 -9 6 3 -6 -3 -19 -14 -29
-14 -13 -28 -16 -55 -11 -24 5 -35 3 -35 -5 0 -8 -5 -7 -16 2 -9 8 -27 12 -40
11 -15 -2 -24 2 -24 10 -1 8 -4 7 -10 -4 -7 -12 -20 -16 -45 -13 -19 2 -38 -1
-41 -6 -3 -6 -15 -7 -27 -3 -32 10 -69 11 -95 2 -14 -5 -21 -4 -17 1 3 6 -7 8
-22 7 -16 -2 -34 -4 -40 -5 -7 0 -13 -6 -13 -12 0 -5 5 -7 12 -3 7 4 8 3 4 -4
-4 -7 -21 -12 -37 -12 -17 0 -28 4 -24 10 3 5 12 7 20 3 9 -3 15 1 15 10 0 10
-8 15 -20 14 -11 -1 -20 -6 -20 -12 0 -5 -5 -3 -10 5 -8 12 -12 13 -19 1 -7
-10 -13 -11 -30 -2 -14 8 -21 8 -21 1 0 -5 6 -10 13 -11 6 0 3 -4 -8 -9 -27
-12 -112 -12 -120 -1 -3 6 15 9 45 6 27 -1 50 -1 50 1 0 11 -60 33 -65 24 -7
-11 -45 -13 -69 -4 -13 5 -12 10 5 34 17 22 29 28 63 28 68 1 137 13 248 44
26 8 50 17 54 21 4 4 13 7 21 7 13 0 88 31 128 53 11 6 38 16 59 22 51 15 56
31 14 40 -86 17 -91 30 -15 41 l52 8 -50 7 c-27 4 -77 8 -110 9 -33 1 -69 5
-80 10 -19 8 -19 8 5 18 17 7 19 11 8 11 -9 1 -29 6 -44 11 l-28 11 22 21 c13
14 32 21 54 20 43 -2 133 19 119 27 -6 4 3 21 24 44 19 21 35 41 35 44 0 11
191 243 200 243 6 0 9 3 8 8 -5 14 40 62 57 62 11 0 15 5 12 14 -3 8 3 25 15
38 l20 23 -49 6 c-60 8 -214 8 -314 0z m-3152 -83 c-15 -6 -24 -14 -20 -21 4
-6 0 -8 -10 -4 -11 4 -14 2 -11 -7 3 -8 1 -17 -5 -21 -11 -6 -16 47 -5 57 3 3
22 6 42 6 36 -1 36 -1 9 -10z m178 -48 c15 -6 6 -9 -32 -9 -29 -1 -53 4 -53 9
0 12 57 12 85 0z m-788 -52 c-3 -8 -6 -5 -6 6 -1 11 2 17 5 13 3 -3 4 -12 1
-19z m-7 -23 c10 -12 10 -15 -2 -15 -8 0 -15 7 -15 15 0 8 1 15 2 15 2 0 8 -7
15 -15z m827 9 c-3 -3 -12 -4 -19 -1 -8 3 -5 6 6 6 11 1 17 -2 13 -5z m2743
-29 c13 -14 21 -25 18 -25 -2 0 -15 11 -28 25 -13 14 -21 25 -18 25 2 0 15
-11 28 -25z m140 9 c0 -8 -19 -13 -24 -6 -3 5 1 9 9 9 8 0 15 -2 15 -3z
m-4010 -18 c0 -11 -19 -15 -25 -6 -3 5 1 10 9 10 9 0 16 -2 16 -4z m958 -31
c41 -12 26 -35 -23 -35 -37 0 -45 3 -45 18 0 24 10 33 29 28 9 -2 26 -7 39
-11z m3006 -44 c-3 -3 -15 6 -27 18 l-22 24 27 -19 c14 -10 24 -21 22 -23z
m-513 -30 c-17 -13 -20 -23 -15 -48 6 -28 3 -33 -19 -38 -13 -4 -56 0 -93 7
l-69 14 105 56 c85 46 106 54 109 41 2 -9 -6 -24 -18 -32z m-1108 -8 c-7 -2
-19 -2 -25 0 -7 3 -2 5 12 5 14 0 19 -2 13 -5z m-363 -13 c0 -5 -5 -10 -11
-10 -5 0 -7 5 -4 10 3 6 8 10 11 10 2 0 4 -4 4 -10z m149 -9 c5 -7 14 -12 22
-11 27 4 57 -12 63 -33 8 -31 7 -37 -4 -37 -5 0 -10 8 -10 18 0 22 -9 34 -21
26 -5 -3 -4 -14 1 -25 13 -23 -2 -26 -20 -4 -7 8 -18 15 -24 15 -6 0 -4 -5 4
-10 11 -7 -5 -9 -53 -6 -37 2 -71 7 -75 11 -4 4 5 5 21 3 18 -4 27 -1 27 7 0
17 -25 26 -47 18 -10 -4 -14 -2 -9 5 3 6 1 14 -5 18 -8 4 -7 9 2 16 19 12 119
4 128 -11z m278 13 c-3 -3 -12 -4 -19 -1 -8 3 -5 6 6 6 11 1 17 -2 13 -5z
m-1044 -11 c-7 -2 -19 -2 -25 0 -7 3 -2 5 12 5 14 0 19 -2 13 -5z m-1525 -10
c-15 -2 -42 -2 -60 0 -18 2 -6 4 27 4 33 0 48 -2 33 -4z m1342 -24 c0 -7 -13
-10 -34 -7 -21 2 -34 0 -33 -7 1 -5 -6 -9 -15 -7 -11 2 -18 -3 -18 -13 0 -10
10 -15 33 -15 24 0 28 -3 17 -10 -18 -12 6 -12 93 -1 31 4 57 3 57 -1 0 -4
-19 -8 -43 -8 -41 0 -67 -13 -67 -33 0 -5 7 -7 15 -4 8 4 17 2 20 -2 2 -5 20
-12 39 -15 19 -4 36 -10 38 -15 2 -4 22 -20 46 -35 25 -15 40 -31 36 -38 -12
-19 -128 -1 -227 37 -52 19 -102 35 -111 35 -10 0 -15 4 -12 8 3 5 -19 20 -48
35 -39 20 -70 27 -117 29 l-64 2 80 5 c59 5 79 9 77 19 -1 8 2 11 8 7 6 -3 8
-10 5 -15 -3 -4 12 -8 33 -8 34 0 35 1 14 11 -22 10 -19 12 35 33 62 24 143
31 143 13z m-1485 -9 c-28 -12 -55 -12 -55 0 0 6 17 10 38 9 30 0 33 -2 17 -9z
m2185 6 c0 -9 -50 -12 -62 -5 -8 6 1 9 25 9 20 0 37 -2 37 -4z m-984 -19 c12
-12 1 -13 -55 -9 -31 2 -49 7 -41 12 15 9 86 7 96 -3z m1434 9 c0 -2 -7 -7
-16 -10 -8 -3 -12 -2 -9 4 6 10 25 14 25 6z m-2139 -40 c-6 -7 -9 -15 -6 -18
3 -2 -10 -2 -28 1 -23 3 -27 6 -12 9 11 2 24 11 28 18 5 8 13 12 18 8 7 -4 6
-10 0 -18z m-361 5 c0 -10 -140 -19 -180 -11 -14 3 18 7 70 11 52 3 98 6 103
7 4 1 7 -2 7 -7z m50 1 c0 -4 -9 -8 -20 -9 -11 -1 -20 2 -20 8 0 5 9 9 20 9
11 0 20 -4 20 -8z m1528 1 c-10 -2 -26 -2 -35 0 -10 3 -2 5 17 5 19 0 27 -2
18 -5z m-2142 -12 c-3 -5 0 -9 7 -8 6 0 26 -1 42 -2 24 -1 27 -4 14 -11 -26
-15 -194 -18 -208 -3 -9 10 -5 11 21 7 25 -4 29 -3 18 5 -8 6 -10 11 -4 11 5
0 16 -6 23 -12 10 -9 12 -9 7 -1 -4 7 4 13 21 16 51 7 64 7 59 -2z m317 -1
c-12 -5 -70 -11 -130 -14 -93 -4 -103 -3 -71 7 44 14 235 21 201 7z m865 3
c-43 -2 -113 -2 -155 0 -43 1 -8 3 77 3 85 0 120 -2 78 -3z m259 -9 c-3 -3
-12 -4 -19 -1 -8 3 -5 6 6 6 11 1 17 -2 13 -5z m741 -1 c-15 -2 -42 -2 -60 0
-18 2 -6 4 27 4 33 0 48 -2 33 -4z m692 -18 c25 -4 48 -12 52 -18 5 -8 19 -9
50 -1 24 6 70 10 103 9 33 0 63 3 66 8 4 5 24 6 45 3 28 -6 34 -10 23 -17 -9
-6 -2 -7 21 -3 19 4 37 7 40 6 23 0 30 -3 26 -10 -6 -11 60 -9 70 1 4 4 14 7
23 7 14 0 14 -2 1 -10 -20 -13 -4 -13 21 0 11 6 24 8 31 4 6 -4 38 -8 72 -10
151 -7 231 -15 245 -27 9 -7 12 -7 8 -1 -4 7 2 10 18 6 14 -2 22 -8 19 -13 -3
-5 0 -9 5 -9 6 0 11 4 11 9 0 6 16 3 35 -5 19 -7 42 -13 52 -13 17 1 17 2 1 6
-29 7 -20 23 12 23 30 0 40 -14 18 -24 -7 -3 0 -3 17 0 16 3 33 11 37 17 5 9
10 9 19 0 6 -6 18 -9 26 -6 8 3 18 1 22 -4 3 -5 35 -15 71 -20 58 -10 50 -11
-75 -7 -77 2 -175 6 -217 9 -42 4 -107 7 -144 8 -47 1 -69 6 -72 16 -3 10 -6
10 -12 1 -5 -9 -51 -9 -196 0 -104 6 -250 13 -324 16 -83 4 -146 12 -164 20
-32 15 -67 18 -81 7 -6 -5 -125 -6 -265 -3 -140 3 -244 7 -230 9 l25 3 -25 7
c-14 4 27 7 92 7 64 -1 112 1 108 4 -12 7 267 3 320 -5z m-2437 -2 c-7 -2 -21
-2 -30 0 -10 3 -4 5 12 5 17 0 24 -2 18 -5z m-261 -63 c-9 -21 -18 -35 -20
-30 -3 9 25 70 33 70 2 0 -4 -18 -13 -40z m73 14 c-1 -13 -5 -27 -10 -31 -4
-5 -5 -3 -2 3 3 6 -2 20 -13 31 -18 20 -18 21 4 21 16 0 21 -6 21 -24z m-342
-5 c-8 -8 -13 -7 -18 2 -5 8 -4 10 3 5 7 -4 12 -2 12 5 0 7 3 9 7 6 4 -4 2
-12 -4 -18z m3238 -58 c108 -46 121 -49 248 -60 135 -11 177 -25 165 -55 -3
-9 4 -11 26 -8 36 5 37 0 9 -45 -12 -19 -23 -45 -24 -56 -1 -12 -3 -25 -4 -29
0 -4 -10 -10 -22 -13 -16 -5 -20 -13 -16 -31 4 -21 1 -24 -28 -24 -18 0 -44 9
-59 21 -22 18 -26 18 -26 4 0 -10 -6 -15 -16 -13 -8 2 -14 8 -12 13 2 6 6 9
11 7 4 -1 7 2 7 8 0 5 -9 10 -20 10 -11 0 -20 4 -20 9 0 4 -12 6 -27 3 -16 -3
-22 -7 -15 -9 6 -3 12 -9 12 -15 0 -6 -7 -8 -15 -4 -10 4 -15 -1 -15 -16 l0
-21 -23 21 c-14 13 -36 22 -56 22 -19 0 -30 4 -26 10 4 6 11 7 17 4 7 -4 8 -2
4 4 -4 7 -25 12 -47 12 -25 0 -38 4 -36 12 1 9 -24 11 -100 9 -56 -2 -117 2
-135 7 -18 6 -132 14 -253 18 -219 7 -284 9 -307 12 -9 2 -13 26 -13 82 l0 80
157 -3 c126 -2 154 0 146 11 -6 7 -9 15 -6 17 9 9 112 25 167 26 31 0 88 6
126 13 103 20 103 20 226 -33z m-2926 29 c-3 -5 -12 -10 -18 -10 -7 0 -6 4 3
10 19 12 23 12 15 0z m2150 -4 c-22 -7 -50 -18 -62 -25 -13 -6 -23 -9 -23 -6
0 10 83 45 105 44 11 0 2 -6 -20 -13z m-724 -13 c-1 -4 -5 -9 -11 -9 -44 -6
-44 -6 -21 -13 32 -9 38 -28 11 -36 -48 -15 -63 40 -17 60 33 14 39 13 38 -2z
m-1158 -20 c-7 -2 -19 -2 -25 0 -7 3 -2 5 12 5 14 0 19 -2 13 -5z m2994 -29
c-3 -3 -12 -4 -19 -1 -8 3 -5 6 6 6 11 1 17 -2 13 -5z m-2470 -10 c-3 -3 -12
-4 -19 -1 -8 3 -5 6 6 6 11 1 17 -2 13 -5z m1240 0 c-3 -3 -12 -4 -19 -1 -8 3
-5 6 6 6 11 1 17 -2 13 -5z m-37 -13 c0 -4 15 -12 33 -18 l32 -10 -45 -7 c-25
-5 -53 -12 -62 -18 -24 -12 -25 18 -1 44 17 19 43 25 43 9z m1345 -1 c3 -5 1
-10 -4 -10 -6 0 -11 5 -11 10 0 6 2 10 4 10 3 0 8 -4 11 -10z m-3062 -27 c-13
-2 -35 -2 -50 0 -16 2 -5 4 22 4 28 0 40 -2 28 -4z m377 -100 c19 -4 39 -5 43
-4 5 1 6 -2 4 -6 -3 -5 30 -8 72 -9 93 -1 134 -10 126 -27 -4 -7 0 -4 8 6 12
15 21 16 56 8 35 -8 44 -6 52 7 9 15 23 16 107 10 121 -9 173 -17 190 -30 8
-7 12 -7 12 0 0 16 164 26 205 12 42 -14 45 -25 9 -28 -15 -1 -33 -7 -40 -13
-10 -8 -14 -8 -14 -1 0 6 -6 10 -12 7 -7 -2 -63 -6 -125 -9 -86 -4 -118 -2
-139 9 -20 10 -32 11 -41 3 -7 -6 -36 -12 -65 -13 -39 -3 -55 1 -64 13 -10 13
-15 14 -27 4 -13 -11 -17 -10 -25 5 -10 16 -12 15 -37 -11 -20 -22 -29 -25
-39 -16 -11 8 -15 8 -18 -1 -3 -8 -10 -9 -23 -2 -11 5 -45 9 -77 9 -31 -1 -54
2 -52 5 2 3 -2 13 -9 22 -8 12 -16 14 -27 7 -13 -8 -12 -10 3 -10 30 0 18 -18
-15 -23 -41 -6 -247 -1 -255 7 -3 3 -13 2 -22 -2 -9 -4 -36 -6 -61 -4 -25 2
-80 5 -123 5 -43 1 -77 6 -77 12 0 6 -7 1 -15 -9 -14 -19 -15 -19 -15 -1 0 18
-1 18 -15 -1 -8 -10 -15 -14 -15 -7 0 7 -6 10 -14 7 -8 -3 -17 -1 -21 5 -3 6
-32 11 -64 11 -49 0 -59 3 -64 19 -4 17 3 20 62 27 173 19 565 24 661 7z
m1232 -49 c24 -4 48 -12 53 -19 6 -6 17 -14 25 -18 8 -3 -16 -4 -55 -1 -38 2
-115 4 -170 5 -113 1 -155 6 -155 20 0 21 50 29 152 24 59 -3 127 -8 150 -11z
m298 -13 c0 -19 -26 -25 -102 -26 -43 0 -78 1 -78 2 0 1 -3 8 -6 17 -5 14 6
16 90 16 53 0 96 -4 96 -9z m188 2 c28 -3 52 -9 52 -13 0 -10 -152 -7 -167 3
-7 5 -18 5 -25 1 -7 -4 -8 -3 -4 5 8 12 51 13 144 4z m-423 -53 c16 -7 14 -9
-15 -9 -19 0 -42 4 -50 9 -11 7 -8 10 15 9 17 0 39 -4 50 -9z m215 0 c0 -6
-16 -8 -36 -5 -52 6 -55 15 -6 15 23 0 42 -4 42 -10z m394 2 c3 -5 -8 -6 -25
-4 -16 2 -29 6 -29 8 0 8 49 4 54 -4z m426 4 c0 -11 -19 -15 -25 -6 -3 5 1 10
9 10 9 0 16 -2 16 -4z m-2610 -16 c0 -5 -4 -10 -10 -10 -5 0 -10 5 -10 10 0 6
5 10 10 10 6 0 10 -4 10 -10z m2423 -50 c-5 -20 -11 -19 -52 9 -12 8 -12 12
-2 25 11 14 15 14 36 0 15 -10 21 -21 18 -34z m109 -6 c-18 -14 -39 -39 -47
-54 -21 -40 -19 -109 4 -146 l19 -31 -25 5 c-18 3 -21 7 -11 13 10 7 9 9 -4 9
-10 0 -18 -4 -18 -10 0 -5 -7 -10 -16 -10 -13 0 -12 3 5 18 18 15 20 24 14 74
-3 32 -10 55 -14 52 -12 -7 -23 22 -15 42 5 14 9 14 23 3 13 -11 17 -11 21 -1
4 14 71 62 87 62 5 0 -5 -12 -23 -26z m1136 1 c-3 -3 -9 2 -12 12 -6 14 -5 15
5 6 7 -7 10 -15 7 -18z m412 21 c0 -3 -4 -8 -10 -11 -5 -3 -10 -1 -10 4 0 6 5
11 10 11 6 0 10 -2 10 -4z m90 -12 c0 -2 -9 -4 -20 -4 -11 0 -20 4 -20 9 0 5
9 7 20 4 11 -3 20 -7 20 -9z m260 12 c0 -2 -7 -6 -15 -10 -8 -3 -15 -1 -15 4
0 6 7 10 15 10 8 0 15 -2 15 -4z m-1589 -20 c13 8 69 -6 69 -17 0 -11 -72 -10
-115 1 l-30 8 28 1 c15 0 27 7 28 14 0 9 2 9 6 -1 2 -6 9 -10 14 -6z m409 -6
l85 -7 -115 -3 c-63 -1 -143 -2 -177 -2 -43 1 -61 -2 -59 -11 6 -33 19 -57 29
-55 7 2 13 -2 15 -7 1 -6 -10 -10 -25 -10 -23 0 -28 5 -29 25 -1 46 -4 50 -29
50 -14 0 -25 5 -25 10 0 9 73 14 180 11 35 -1 42 1 30 9 -12 9 -10 10 10 4 14
-4 63 -10 110 -14z m767 14 c-3 -3 -12 -4 -19 -1 -8 3 -5 6 6 6 11 1 17 -2 13
-5z m-1824 -23 c10 -10 -76 -12 -850 -14 -450 -1 -683 1 -683 8 0 6 207 12
592 15 653 6 929 3 941 -9z m-1633 -6 c7 -8 9 -15 6 -15 -4 0 -14 7 -22 15 -9
8 -11 15 -6 15 5 0 15 -7 22 -15z m895 -33 c-3 -3 -11 0 -18 7 -9 10 -8 11 6
5 10 -3 15 -9 12 -12z m-315 -28 c0 -23 3 -24 73 -26 39 0 86 -2 102 -3 17 0
45 2 63 6 17 4 35 3 37 -2 3 -5 23 -8 43 -7 20 1 199 0 396 -1 231 -2 361 1
365 8 4 5 17 -17 31 -49 14 -33 32 -61 40 -63 22 -5 -744 -17 -1232 -20 -370
-2 -415 0 -404 13 20 23 27 66 16 94 l-10 26 234 0 234 0 -5 31 c-3 21 -1 29
6 24 6 -3 11 -17 11 -31z m2368 29 c-10 -2 -28 -2 -40 0 -13 2 -5 4 17 4 22 1
32 -1 23 -4z m62 -3 c0 -5 -7 -7 -15 -4 -8 4 -15 8 -15 10 0 2 7 4 15 4 8 0
15 -4 15 -10z m98 3 c-10 -2 -26 -2 -35 0 -10 3 -2 5 17 5 19 0 27 -2 18 -5z
m72 3 c0 -3 -4 -8 -10 -11 -5 -3 -10 -1 -10 4 0 6 5 11 10 11 6 0 10 -2 10 -4z
m135 -7 c-7 -10 -80 -7 -91 3 -3 4 17 7 45 6 28 0 49 -4 46 -9z m265 -5 c0 -2
-17 -4 -37 -3 -33 1 -35 2 -13 8 23 7 50 4 50 -5z m130 6 c0 -5 -12 -10 -27
-9 l-28 1 25 8 c14 4 26 8 28 9 1 1 2 -3 2 -9z m-3390 -10 c0 -5 -2 -10 -4
-10 -3 0 -8 5 -11 10 -3 6 -1 10 4 10 6 0 11 -4 11 -10z m3037 4 c-3 -3 -12
-4 -19 -1 -8 3 -5 6 6 6 11 1 17 -2 13 -5z m56 -1 c-7 -2 -19 -2 -25 0 -7 3
-2 5 12 5 14 0 19 -2 13 -5z m220 0 c-7 -2 -19 -2 -25 0 -7 3 -2 5 12 5 14 0
19 -2 13 -5z m145 0 c-10 -2 -28 -2 -40 0 -13 2 -5 4 17 4 22 1 32 -1 23 -4z
m75 0 c-7 -2 -19 -2 -25 0 -7 3 -2 5 12 5 14 0 19 -2 13 -5z m327 -3 c11 -7 2
-9 -30 -9 -37 1 -41 2 -20 9 34 11 33 11 50 0z m70 -6 c0 -2 -12 -4 -26 -4
-14 0 -23 4 -20 9 6 8 46 4 46 -5z m-4290 2 c0 -3 -4 -8 -10 -11 -5 -3 -10 -1
-10 4 0 6 5 11 10 11 6 0 10 -2 10 -4z m4333 -3 c-7 -2 -19 -2 -25 0 -7 3 -2
5 12 5 14 0 19 -2 13 -5z m-2173 -47 c0 -13 -8 -33 -17 -44 -20 -22 -71 -42
-59 -23 4 6 13 11 20 11 21 0 39 28 38 61 0 16 4 27 9 24 5 -4 9 -17 9 -29z
m-2143 -48 c-3 -8 -6 -5 -6 6 -1 11 2 17 5 13 3 -3 4 -12 1 -19z m70 -11 c-3
-10 -37 -20 -37 -11 0 3 6 11 13 18 13 15 30 11 24 -7z"/>
<path d="M4035 990 c3 -5 10 -10 16 -10 5 0 9 5 9 10 0 6 -7 10 -16 10 -8 0
-12 -4 -9 -10z"/>
<path d="M4588 933 c7 -3 16 -2 19 1 4 3 -2 6 -13 5 -11 0 -14 -3 -6 -6z"/>
<path d="M3680 860 c30 -5 100 -8 155 -7 l100 0 -70 7 c-38 4 -108 7 -155 7
-81 0 -82 0 -30 -7z"/>
<path d="M4320 781 c0 -5 -75 -8 -170 -7 -93 2 -170 -1 -170 -6 0 -17 43 -24
131 -22 77 2 89 0 90 -15 0 -10 2 -11 6 -3 7 18 31 15 36 -5 4 -14 5 -12 6 5
1 19 7 22 44 23 23 1 51 3 62 4 11 1 30 2 42 3 15 1 21 7 17 17 -7 16 -94 22
-94 6z"/>
<path d="M3271 724 c0 -11 3 -14 6 -6 3 7 2 16 -1 19 -3 4 -6 -2 -5 -13z"/>
<path d="M3301 724 c0 -11 3 -14 6 -6 3 7 2 16 -1 19 -3 4 -6 -2 -5 -13z"/>
<path d="M4548 1143 c7 -3 16 -2 19 1 4 3 -2 6 -13 5 -11 0 -14 -3 -6 -6z"/>
<path d="M4638 1123 c6 -2 18 -2 25 0 6 3 1 5 -13 5 -14 0 -19 -2 -12 -5z"/>
<path d="M6250 869 c0 -9 138 -3 149 7 2 2 -30 4 -72 4 -48 0 -77 -4 -77 -11z"/>
<path d="M6175 863 c-16 -3 -34 -9 -39 -13 -10 -10 57 -2 89 11 l20 8 -20 -1
c-11 -1 -33 -3 -50 -5z"/>
<path d="M5268 583 c6 -2 18 -2 25 0 6 3 1 5 -13 5 -14 0 -19 -2 -12 -5z"/>
<path d="M6017 355 c4 -17 3 -18 -7 -5 -9 12 -11 12 -8 1 7 -24 24 -23 35 2 9
19 8 23 -7 23 -12 0 -16 -6 -13 -21z"/>
<path d="M5939 353 c6 -13 13 -23 16 -23 13 0 35 14 35 22 0 6 -7 7 -16 4 -9
-4 -23 -1 -32 6 -13 11 -14 10 -3 -9z"/>
<path d="M5588 353 c6 -2 18 -2 25 0 6 3 1 5 -13 5 -14 0 -19 -2 -12 -5z"/>
<path d="M5710 356 c0 -2 11 -6 25 -8 14 -3 25 -1 25 3 0 5 -11 9 -25 9 -14 0
-25 -2 -25 -4z"/>
<path d="M5778 353 c7 -3 16 -2 19 1 4 3 -2 6 -13 5 -11 0 -14 -3 -6 -6z"/>
<path d="M5860 353 c69 -23 73 -23 60 -8 -7 8 -27 15 -44 14 -17 0 -24 -3 -16
-6z"/>
<path d="M6045 349 c-11 -17 1 -21 15 -4 8 9 8 15 2 15 -6 0 -14 -5 -17 -11z"/>
<path d="M6073 340 c-11 -16 -10 -18 2 -14 8 4 15 12 15 20 0 19 -3 18 -17 -6z"/>
<path d="M6100 339 c0 -11 5 -17 10 -14 6 4 7 12 3 18 -4 7 0 6 10 -2 15 -12
17 -11 17 3 0 9 -8 16 -20 16 -14 0 -20 -7 -20 -21z"/>
<path d="M4083 243 c9 -2 25 -2 35 0 9 3 1 5 -18 5 -19 0 -27 -2 -17 -5z"/>
<path d="M4178 243 c7 -3 16 -2 19 1 4 3 -2 6 -13 5 -11 0 -14 -3 -6 -6z"/>
<path d="M1868 193 c6 -2 18 -2 25 0 6 3 1 5 -13 5 -14 0 -19 -2 -12 -5z"/>
<path d="M1248 123 c6 -2 18 -2 25 0 6 3 1 5 -13 5 -14 0 -19 -2 -12 -5z"/>
<path d="M853 53 c9 -2 25 -2 35 0 9 3 1 5 -18 5 -19 0 -27 -2 -17 -5z"/>
<path d="M2058 33 c7 -3 16 -2 19 1 4 3 -2 6 -13 5 -11 0 -14 -3 -6 -6z"/>
<path d="M1983 23 c9 -2 25 -2 35 0 9 3 1 5 -18 5 -19 0 -27 -2 -17 -5z"/>
<path d="M2363 23 c9 -2 23 -2 30 0 6 3 -1 5 -18 5 -16 0 -22 -2 -12 -5z"/>
</g>
</svg>
