{
	"asset":{
		"generator":"Khronos glTF Blender I/O v5.1.19",
		"version":"2.0"
	},
	"extensionsUsed":[
		"KHR_materials_emissive_strength"
	],
	"scene":0,
	"scenes":[
		{
			"name":"Scene",
			"nodes":[
				0,
				1,
				2
			]
		}
	],
	"nodes":[
		{
			"name":"Node_1",
			"rotation":[
				-0.70710688829422,
				0,
				0,
				0.7071066498756409
			],
			"translation":[
				-0.04820700362324715,
				0,
				0.015442037023603916
			]
		},
		{
			"mesh":0,
			"name":"Cone",
			"scale":[
				791.7993774414062,
				8.051665306091309,
				791.7993774414062
			],
			"translation":[
				0,
				7.869646072387695,
				0
			]
		},
		{
			"mesh":1,
			"name":"empty_2",
			"rotation":[
				-0.7119459509849548,
				0,
				0,
				0.7022342681884766
			],
			"translation":[
				0,
				-0.8246626853942871,
				0
			]
		}
	],
	"materials":[
		{
			"alphaMode":"BLEND",
			"doubleSided":true,
			"emissiveFactor":[
				1,
				7.93697662074255e-05,
				0.0066991790304000995
			],
			"extensions":{
				"KHR_materials_emissive_strength":{
					"emissiveStrength":7.81933718919754
				}
			},
			"name":"Material.001",
			"pbrMetallicRoughness":{
				"baseColorFactor":[
					0,
					0.6038312911987305,
					0.6038312911987305,
					0.10000000149011612
				],
				"metallicFactor":0
			}
		},
		{
			"emissiveFactor":[
				0,
				0.20000000298023224,
				0.19770357903396452
			],
			"name":"Material_0",
			"pbrMetallicRoughness":{
				"baseColorFactor":[
					0,
					0.21403686702251434,
					0.21403686702251434,
					1
				],
				"metallicFactor":0
			}
		}
	],
	"meshes":[
		{
			"name":"Cone",
			"primitives":[
				{
					"attributes":{
						"POSITION":0,
						"NORMAL":1,
						"TEXCOORD_0":2
					},
					"indices":3,
					"material":0
				}
			]
		},
		{
			"name":"Mesh_0.001",
			"primitives":[
				{
					"attributes":{
						"POSITION":4,
						"NORMAL":5
					},
					"indices":6,
					"material":1
				}
			]
		}
	],
	"accessors":[
		{
			"bufferView":0,
			"componentType":5126,
			"count":128,
			"max":[
				1,
				1,
				1
			],
			"min":[
				-1,
				-1,
				-1
			],
			"type":"VEC3"
		},
		{
			"bufferView":1,
			"componentType":5126,
			"count":128,
			"type":"VEC3"
		},
		{
			"bufferView":2,
			"componentType":5126,
			"count":128,
			"type":"VEC2"
		},
		{
			"bufferView":3,
			"componentType":5123,
			"count":186,
			"type":"SCALAR"
		},
		{
			"bufferView":4,
			"componentType":5126,
			"count":286590,
			"max":[
				95,
				89.70800018310547,
				160.7899932861328
			],
			"min":[
				-88.197998046875,
				-83,
				0
			],
			"type":"VEC3"
		},
		{
			"bufferView":5,
			"componentType":5126,
			"count":286590,
			"type":"VEC3"
		},
		{
			"bufferView":6,
			"componentType":5125,
			"count":286590,
			"type":"SCALAR"
		}
	],
	"bufferViews":[
		{
			"buffer":0,
			"byteLength":1536,
			"byteOffset":0,
			"target":34962
		},
		{
			"buffer":0,
			"byteLength":1536,
			"byteOffset":1536,
			"target":34962
		},
		{
			"buffer":0,
			"byteLength":1024,
			"byteOffset":3072,
			"target":34962
		},
		{
			"buffer":0,
			"byteLength":372,
			"byteOffset":4096,
			"target":34963
		},
		{
			"buffer":0,
			"byteLength":3439080,
			"byteOffset":4468,
			"target":34962
		},
		{
			"buffer":0,
			"byteLength":3439080,
			"byteOffset":3443548,
			"target":34962
		},
		{
			"buffer":0,
			"byteLength":1146360,
			"byteOffset":6882628,
			"target":34963
		}
	],
	"buffers":[
		{
			"byteLength":8028988,
			"uri":"Untitled.bin"
		}
	]
}
