{
	"asset":{
		"generator":"Khronos glTF Blender I/O v5.1.19",
		"version":"2.0"
	},
	"scene":0,
	"scenes":[
		{
			"name":"Scene",
			"nodes":[
				0
			]
		}
	],
	"nodes":[
		{
			"mesh":0,
			"name":"Mighty Uusam",
			"rotation":[
				-0.5007060170173645,
				0.5005843639373779,
				-0.49941471219062805,
				0.4992932677268982
			],
			"scale":[
				0.0945049598813057,
				0.0945049598813057,
				0.0945049524307251
			],
			"translation":[
				0,
				0.03260136395692825,
				0
			]
		}
	],
	"materials":[
		{
			"alphaMode":"BLEND",
			"doubleSided":true,
			"emissiveFactor":[
				1,
				0.07752438634634018,
				0
			],
			"name":"Material.001",
			"pbrMetallicRoughness":{
				"baseColorFactor":[
					1,
					0.23977649211883545,
					0,
					0.20000000298023224
				],
				"metallicFactor":0,
				"roughnessFactor":0
			}
		}
	],
	"meshes":[
		{
			"name":"Mighty Uusam",
			"primitives":[
				{
					"attributes":{
						"POSITION":0,
						"NORMAL":1
					},
					"indices":2,
					"material":0
				}
			]
		}
	],
	"accessors":[
		{
			"bufferView":0,
			"componentType":5126,
			"count":577,
			"max":[
				46.500030517578125,
				25.07542610168457,
				46.499969482421875
			],
			"min":[
				-46.499969482421875,
				-14.92457389831543,
				-46.500030517578125
			],
			"type":"VEC3"
		},
		{
			"bufferView":1,
			"componentType":5126,
			"count":577,
			"type":"VEC3"
		},
		{
			"bufferView":2,
			"componentType":5123,
			"count":864,
			"type":"SCALAR"
		}
	],
	"bufferViews":[
		{
			"buffer":0,
			"byteLength":6924,
			"byteOffset":0,
			"target":34962
		},
		{
			"buffer":0,
			"byteLength":6924,
			"byteOffset":6924,
			"target":34962
		},
		{
			"buffer":0,
			"byteLength":1728,
			"byteOffset":13848,
			"target":34963
		}
	],
	"buffers":[
		{
			"byteLength":15576,
			"uri":"PlasmaFX.bin"
		}
	]
}
