{
	"asset":{
		"generator":"Khronos glTF Blender I/O v5.1.19",
		"version":"2.0"
	},
	"scene":0,
	"scenes":[
		{
			"name":"Scene",
			"nodes":[
				1
			]
		}
	],
	"nodes":[
		{
			"mesh":0,
			"name":"Mesh_Mesh_head_geo.001_lambert2SG.001"
		},
		{
			"children":[
				0
			],
			"name":"Node_1",
			"rotation":[
				-0.70710688829422,
				0,
				0,
				0.7071066498756409
			],
			"scale":[
				162.992431640625,
				162.99244689941406,
				162.99244689941406
			]
		}
	],
	"materials":[
		{
			"emissiveFactor":[
				0.009999999776482582,
				0.009999999776482582,
				0.009999999776482582
			],
			"name":"lambert2SG.001",
			"pbrMetallicRoughness":{
				"baseColorFactor":[
					0,
					0,
					0,
					1
				],
				"roughnessFactor":0.10000000149011612
			}
		}
	],
	"meshes":[
		{
			"name":"Mesh_0",
			"primitives":[
				{
					"attributes":{
						"POSITION":0,
						"NORMAL":1,
						"COLOR_0":2,
						"COLOR_1":3
					},
					"indices":4,
					"material":0
				}
			]
		}
	],
	"accessors":[
		{
			"bufferView":0,
			"componentType":5126,
			"count":4230,
			"max":[
				0.312063992023468,
				0.27399998903274536,
				0.08609200268983841
			],
			"min":[
				-0.23899999260902405,
				-0.2250160127878189,
				0.0010000000474974513
			],
			"type":"VEC3"
		},
		{
			"bufferView":1,
			"componentType":5126,
			"count":4230,
			"type":"VEC3"
		},
		{
			"bufferView":2,
			"componentType":5121,
			"count":4230,
			"normalized":true,
			"type":"VEC4"
		},
		{
			"bufferView":3,
			"componentType":5123,
			"count":4230,
			"normalized":true,
			"type":"VEC4"
		},
		{
			"bufferView":4,
			"componentType":5123,
			"count":4230,
			"type":"SCALAR"
		}
	],
	"bufferViews":[
		{
			"buffer":0,
			"byteLength":50760,
			"byteOffset":0,
			"target":34962
		},
		{
			"buffer":0,
			"byteLength":50760,
			"byteOffset":50760,
			"target":34962
		},
		{
			"buffer":0,
			"byteLength":16920,
			"byteOffset":101520,
			"target":34962
		},
		{
			"buffer":0,
			"byteLength":33840,
			"byteOffset":118440,
			"target":34962
		},
		{
			"buffer":0,
			"byteLength":8460,
			"byteOffset":152280,
			"target":34963
		}
	],
	"buffers":[
		{
			"byteLength":160740,
			"uri":"ReaperV2.bin"
		}
	]
}
