{
	"asset":{
		"generator":"Khronos glTF Blender I/O v5.1.19",
		"version":"2.0"
	},
	"scene":0,
	"scenes":[
		{
			"name":"Scene",
			"nodes":[
				0
			]
		}
	],
	"nodes":[
		{
			"mesh":0,
			"name":"ufo",
			"translation":[
				0,
				10.73546314239502,
				0
			]
		}
	],
	"materials":[
		{
			"doubleSided":true,
			"name":"Material.001",
			"pbrMetallicRoughness":{
				"baseColorFactor":[
					0,
					0.21403686702251434,
					0.21403686702251434,
					1
				],
				"roughnessFactor":0
			}
		}
	],
	"meshes":[
		{
			"name":"ufo",
			"primitives":[
				{
					"attributes":{
						"POSITION":0,
						"NORMAL":1
					},
					"indices":2,
					"material":0
				}
			]
		}
	],
	"accessors":[
		{
			"bufferView":0,
			"componentType":5126,
			"count":8600,
			"max":[
				27.7828369140625,
				10.46154499053955,
				27.891088485717773
			],
			"min":[
				-28.187162399291992,
				-10.52845573425293,
				-28.07891082763672
			],
			"type":"VEC3"
		},
		{
			"bufferView":1,
			"componentType":5126,
			"count":8600,
			"type":"VEC3"
		},
		{
			"bufferView":2,
			"componentType":5123,
			"count":10002,
			"type":"SCALAR"
		}
	],
	"bufferViews":[
		{
			"buffer":0,
			"byteLength":103200,
			"byteOffset":0,
			"target":34962
		},
		{
			"buffer":0,
			"byteLength":103200,
			"byteOffset":103200,
			"target":34962
		},
		{
			"buffer":0,
			"byteLength":20004,
			"byteOffset":206400,
			"target":34963
		}
	],
	"buffers":[
		{
			"byteLength":226404,
			"uri":"UFO.bin"
		}
	]
}
